<svg t="1659660083279" class="icon" viewBox="0 0 1024 1024" version="1.1" xmlns="http://www.w3.org/2000/svg" p-id="4425" width="200" height="200"><path d="M932 273.2H88.3V123c0-4.4 3.6-8 8-8H924c4.4 0 8 3.6 8 8v150.2z" fill="#CBCBCB" p-id="4426"></path><path d="M955.1 296.2H65.2V167.7c0-41.8 34-75.8 75.8-75.8h738.3c41.8 0 75.8 34 75.8 75.8v128.5z m-843.7-46.1H909v-82.4c0-16.4-13.3-29.7-29.7-29.7H141c-16.4 0-29.7 13.3-29.7 29.7v82.4z" fill="#7D7D7D" p-id="4427"></path><path d="M879.3 929H141c-41.8 0-75.8-34-75.8-75.8V250.1h889.9v603.1c0 41.8-34 75.8-75.8 75.8zM111.4 296.2v557c0 16.4 13.3 29.7 29.7 29.7h738.3c16.4 0 29.7-13.3 29.7-29.7v-557H111.4z" fill="#7D7D7D" p-id="4428"></path></svg>